<svg width="145" height="145" viewBox="0 0 145 145" fill="none" xmlns="http://www.w3.org/2000/svg">
<g clip-path="url(#clip0)">
<path d="M72.2356 44.9525C57.0458 44.9525 44.688 57.3102 44.688 72.5C44.688 87.6897 57.0458 100.048 72.2356 100.048C87.4253 100.048 99.7831 87.6897 99.7831 72.5C99.7831 57.3102 87.4253 44.9525 72.2356 44.9525ZM72.2356 90.6037C62.2532 90.6037 54.1318 82.4824 54.1318 72.5C54.1318 62.5176 62.2532 54.3962 72.2356 54.3962C82.218 54.3962 90.3393 62.5176 90.3393 72.5C90.3393 82.4824 82.218 90.6037 72.2356 90.6037Z" fill="white"/>
<path d="M144.66 70.7417C134.087 44.395 105.088 26.6932 72.5 26.6932C39.9168 26.6932 10.9179 44.3947 0.339977 70.7408C-0.11362 71.8702 -0.113325 73.1313 0.340568 74.2607C10.9268 100.606 39.9254 118.307 72.5 118.307C105.073 118.307 134.071 100.606 144.659 74.2613C145.113 73.1321 145.114 71.8711 144.66 70.7417ZM72.5 108.863C44.4888 108.863 19.59 94.3276 9.84929 72.4994C19.5832 50.6719 44.482 36.1367 72.5 36.137C100.522 36.137 125.421 50.6719 135.151 72.4988C125.408 94.3273 100.509 108.863 72.5 108.863Z" fill="white"/>
</g>
<defs>
<clipPath id="clip0">
<path d="M0 0H145V145H0V0Z" fill="white"/>
</clipPath>
</defs>
</svg>
